<svg width="12" height="24" viewBox="0 0 12 24" xmlns="http://www.w3.org/2000/svg">
    <path d="M.383 12.782h2.604v10.83c0 .215.172.388.383.388h4.415a.385.385 0 0 0 .384-.387v-10.78h2.993a.385.385 0 0 0 .38-.342l.455-3.988a.39.39 0 0 0-.094-.302.382.382 0 0 0-.286-.13H8.169V5.573c0-.753.401-1.135 1.193-1.135h2.255A.385.385 0 0 0 12 4.05V.39a.385.385 0 0 0-.383-.387H8.51A3.015 3.015 0 0 0 8.368 0c-.54 0-2.413.107-3.894 1.483-1.64 1.524-1.412 3.35-1.357 3.666v2.923H.383A.385.385 0 0 0 0 8.459v3.936c0 .214.171.387.383.387z" fill="#FFF" fill-rule="nonzero"/>
</svg>
