<svg width="24" height="24" viewBox="0 0 24 24" xmlns="http://www.w3.org/2000/svg">
    <path d="M3.082 0H20.92A3.089 3.089 0 0 1 24 3.08v17.84A3.088 3.088 0 0 1 20.92 24H3.082A3.09 3.09 0 0 1 0 20.92V3.08A3.09 3.09 0 0 1 3.082 0zm14.402 2.666c-.595 0-1.08.487-1.08 1.082v2.585c0 .595.485 1.081 1.08 1.081h2.712c.594 0 1.08-.486 1.08-1.081V3.748c0-.595-.486-1.082-1.08-1.082h-2.712zm3.803 7.483h-2.112c.2.654.309 1.344.309 2.061 0 3.991-3.341 7.228-7.461 7.228s-7.46-3.237-7.46-7.228c0-.717.109-1.407.308-2.06H2.668v10.139c0 .525.429.952.953.952h16.713a.954.954 0 0 0 .953-.952v-10.14zm-9.264-2.871c-2.661 0-4.82 2.09-4.82 4.671 0 2.579 2.159 4.67 4.82 4.67 2.662 0 4.82-2.091 4.82-4.67 0-2.58-2.158-4.671-4.82-4.671z" fill="#FFF" fill-rule="nonzero"/>
</svg>
