<svg width="24" height="24" viewBox="0 0 24 24" xmlns="http://www.w3.org/2000/svg">
    <path d="M17.842 7.326c5.426 0 6.158 3.931 6.158 7.777v8.509a.387.387 0 0 1-.387.388h-4.81a.387.387 0 0 1-.386-.388V16.07c0-2.112-.156-3.727-2.115-3.727-1.8 0-2.5 1.008-2.5 3.594v7.675a.388.388 0 0 1-.387.388H8.607a.388.388 0 0 1-.387-.388V8.1c0-.215.173-.388.387-.388h4.614c.214 0 .387.173.387.388v1.007c.868-.947 2.299-1.78 4.234-1.78zm-12.255.386c.213 0 .387.173.387.388v15.512a.387.387 0 0 1-.387.388H.769a.387.387 0 0 1-.388-.388V8.1c0-.215.174-.388.388-.388zM3.179 0a3.183 3.183 0 0 1 0 6.367A3.185 3.185 0 0 1 3.18 0z" fill="#FFF" fill-rule="nonzero"/>
</svg>
