<svg width="111" height="81" viewBox="0 0 111 81" xmlns="http://www.w3.org/2000/svg">
    <defs>
        <linearGradient x1="50%" y1="-9.656%" x2="50%" y2="84.702%" id="b">
            <stop stop-color="#FFC95B" offset="0%"/>
            <stop stop-color="#EE9F4A" offset="100%"/>
        </linearGradient>
        <filter x="-81.9%" y="-55.2%" width="263.9%" height="210.4%" filterUnits="objectBoundingBox" id="a">
            <feGaussianBlur stdDeviation="1.188" in="SourceGraphic"/>
        </filter>
    </defs>
    <g fill="none" fill-rule="evenodd">
        <path d="M19.452 73.196v-8.63h3.094c1.77 0 3.302-.216 4.597-.648 1.295-.43 2.364-1.03 3.208-1.798a7.114 7.114 0 0 0 1.88-2.765c.41-1.075.616-2.256.616-3.544 0-1.193-.2-2.304-.598-3.332a6.944 6.944 0 0 0-1.854-2.676c-.838-.756-1.905-1.35-3.2-1.78-1.294-.432-2.844-.648-4.649-.648h-9.035v25.82h5.941zm3.094-13.15h-3.094V51.86h3.094c.75 0 1.397.095 1.942.284.545.189.996.457 1.354.806.357.348.624.765.8 1.25.176.484.263 1.021.263 1.612 0 1.335-.34 2.375-1.02 3.119-.679.744-1.792 1.116-3.339 1.116z" fill="#F28705" fill-rule="nonzero"/>
        <g fill-rule="nonzero">
            <path d="M71.445 73.335c1.453 0 2.75-.222 3.893-.665 1.143-.443 2.104-1.051 2.883-1.825a7.847 7.847 0 0 0 1.784-2.72c.41-1.04.616-2.156.616-3.35 0-1.075-.164-1.993-.492-2.755a6.124 6.124 0 0 0-1.292-1.94 7.006 7.006 0 0 0-1.829-1.312 18.703 18.703 0 0 0-2.1-.895 45.615 45.615 0 0 0-2.1-.691 13.778 13.778 0 0 1-1.829-.682c-.533-.249-.964-.544-1.292-.887-.328-.342-.492-.773-.492-1.293 0-.815.272-1.462.817-1.94.545-.48 1.374-.718 2.488-.718.644 0 1.218.085 1.722.257.504.17.952.363 1.345.575.393.213.744.405 1.055.576.31.172.6.257.87.257.304 0 .553-.07.747-.212.193-.142.378-.355.554-.638l1.476-2.783a8.635 8.635 0 0 0-1.556-1.143 11.588 11.588 0 0 0-1.872-.868 11.98 11.98 0 0 0-2.118-.55 13.93 13.93 0 0 0-2.294-.185c-1.406 0-2.654.215-3.744.646-1.09.432-2.01 1.008-2.76 1.728a7.32 7.32 0 0 0-1.705 2.464 7.262 7.262 0 0 0-.58 2.835c0 1.205.164 2.218.492 3.04.328.82.759 1.506 1.292 2.055.533.55 1.14.992 1.82 1.33.68.336 1.377.62 2.091.85.715.23 1.413.44 2.092.629.68.189 1.286.407 1.82.656.533.248.963.56 1.292.939.328.378.492.868.492 1.47 0 1.04-.299 1.8-.897 2.278-.597.478-1.435.718-2.513.718-.797 0-1.489-.113-2.075-.337a9.836 9.836 0 0 1-1.555-.744c-.452-.272-.856-.52-1.213-.745-.358-.224-.712-.336-1.064-.336-.27 0-.518.068-.747.203a1.765 1.765 0 0 0-.554.505l-1.757 2.8a9.271 9.271 0 0 0 1.775 1.383c.68.413 1.406.77 2.18 1.072a14.37 14.37 0 0 0 2.4.7c.825.165 1.637.248 2.434.248z" fill="#BF0413"/>
            <path d="M90.922 73.335c1.453 0 2.75-.222 3.893-.665 1.143-.443 2.104-1.051 2.883-1.825a7.847 7.847 0 0 0 1.784-2.72c.41-1.04.616-2.156.616-3.35 0-1.075-.165-1.993-.493-2.755a6.124 6.124 0 0 0-1.292-1.94 7.006 7.006 0 0 0-1.828-1.312 18.703 18.703 0 0 0-2.1-.895 45.615 45.615 0 0 0-2.101-.691 13.778 13.778 0 0 1-1.828-.682c-.533-.249-.964-.544-1.292-.887-.328-.342-.492-.773-.492-1.293 0-.815.272-1.462.817-1.94.545-.48 1.374-.718 2.487-.718.645 0 1.22.085 1.723.257.504.17.952.363 1.345.575.392.213.744.405 1.054.576.311.172.601.257.87.257.305 0 .554-.07.748-.212.193-.142.378-.355.553-.638l1.477-2.783a8.635 8.635 0 0 0-1.556-1.143 11.588 11.588 0 0 0-1.872-.868 11.98 11.98 0 0 0-2.118-.55 13.93 13.93 0 0 0-2.294-.185c-1.406 0-2.654.215-3.744.646-1.09.432-2.01 1.008-2.76 1.728a7.32 7.32 0 0 0-1.705 2.464 7.262 7.262 0 0 0-.58 2.835c0 1.205.164 2.218.492 3.04.328.82.759 1.506 1.292 2.055.533.55 1.14.992 1.82 1.33.68.336 1.376.62 2.091.85.715.23 1.412.44 2.092.629.68.189 1.286.407 1.82.656.533.248.963.56 1.291.939.329.378.493.868.493 1.47 0 1.04-.3 1.8-.897 2.278-.598.478-1.435.718-2.514.718-.796 0-1.488-.113-2.074-.337a9.836 9.836 0 0 1-1.555-.744c-.452-.272-.856-.52-1.213-.745-.358-.224-.712-.336-1.064-.336-.27 0-.518.068-.747.203a1.765 1.765 0 0 0-.554.505l-1.758 2.8a9.271 9.271 0 0 0 1.776 1.383c.68.413 1.406.77 2.18 1.072a14.37 14.37 0 0 0 2.399.7c.826.165 1.638.248 2.435.248z" fill="#781F97"/>
        </g>
        <path d="M37.704 73.348c.492 0 .905-.133 1.239-.399.334-.266.565-.565.694-.896l1.512-4.507h9.737l1.511 4.507c.165.378.405.689.721.932.316.242.732.363 1.248.363h4.605l-9.913-25.854h-6.081l-9.914 25.854h4.64zm13.182-5.802h-9.737l3.726-11.126A28.89 28.89 0 0 0 46 52.817c.199.71.398 1.37.597 1.979.2.61.387 1.139.563 1.588l3.726 11.162z" fill="#0367A6" fill-rule="nonzero"/>
        <path fill="#000" opacity=".5" filter="url(#a)" d="m24.484 14.019.664-1.126 3.684 4.971-1.15 1.481z" transform="translate(13.51 46.948)"/>
        <g fill="#7C4B4B">
            <path d="M20.506 76.27c-.188.08-.389.136-.572.203.043-.221-.177-.59.049-.64.012.063.05.138.127.23l.002-.02c-.248-.299.025-.404.164-.56.312.318.018.375.052.743l.01-.003c-.031-.35.33-.429-.026-.786.108-.158.07-.436-.104-.588a.817.817 0 0 0 .298-.29.615.615 0 0 0 .075-.276c.002-.061.278.44.27.954-.01.501-.302 1.015-.345 1.033zm-8.372-2.423c.457.127 1.001.16 1.592.14.476.236.594.808.39 1.302-.186.447-.871.704-.945 1.21-.387.06-.467.333-.447.67-.6.214-.776.99-.5 1.394-.745.748.01.913-.057 1.644l.022.006c.07-.769-.542-.89.11-1.554.29.327.861.546.34 1.172l.007.04c.159-.192.239-.348.265-.481.504.113-.057.989.13 1.432l.015-.004c-.168-.4.56-1.45-.137-1.558-.027-.38-.527-.573-.641-.909-.138-.403.015-.873.463-1.017.061.449.232.963.094 1.241l.02.005c.293-.59-.368-1.756.314-1.907.022.177.113.386.306.64l.012-.053c-.632-.833.15-1.125.57-1.56.803.885-.025 1.045-.008 2.07l.031-.008c-.011-.667.463-.98.47-1.432.639.163.818.818.587 1.375-.186.447-.87.704-.945 1.21-.938.145-.072 1.543-.336 2.076l.021.005c.292-.59-.369-1.756.314-1.908.021.177.113.386.306.641l.01-.053c-.63-.834.152-1.125.571-1.561.804.885-.025 1.046-.007 2.07l.03-.007c-.016-.975 1.005-1.195.087-2.192.43-.567.228-1.689-.667-1.896v.039c-.046-.16-.153-.34-.354-.558.323-.427.288-1.17-.131-1.599.451-.027.925-.08 1.404-.141-.187.26-.21.627-.057.85-.593.596.008.728-.045 1.311l.018.005c.056-.613-.433-.71.087-1.24.232.262.687.436.272.935l.005.032c.127-.153.19-.278.211-.384.402.09-.045.789.103 1.142l.013-.003c-.134-.319.446-1.156-.109-1.242-.022-.303-.42-.457-.511-.724-.086-.252-.03-.536.17-.703.492-.064.99-.136 1.472-.195.626.206.934.901.7 1.466-.195.47-.917.741-.995 1.275-.988.152-.076 1.624-.353 2.186l.021.005c.308-.621-.388-1.85.33-2.01.023.188.12.407.323.676l.012-.056c-.665-.878.16-1.185.6-1.645.847.933-.026 1.102-.007 2.182l.032-.009c-.004-.252.06-.456.147-.636a.95.95 0 0 1 .24.24c.22.337-.108.474-.321.58-.426.214-.7.358-.383 1.098l.035-.002c-.489-1.14.93-.826.852-1.497a.536.536 0 0 0-.09-.23 1.1 1.1 0 0 0-.284-.284c.268-.498.641-.832-.045-1.577.372-.532.31-1.439-.318-1.82a10.604 10.604 0 0 1 1.548-.069c.167.128.24.254.215.383-.07.39-1.014.261-.618 1.19l.03-.002c-.408-.95.775-.688.71-1.248a.557.557 0 0 0-.175-.313c.272.02.522.062.746.13.8.857.035 1.105-.544 1.376-.58.272-.916.577-.64 1.6l.055-.003c-.34-1.262.647-1.374 1.253-1.715.15.094.197.284.14.45-.054.16-.293.252-.306.434-.313.049-.025.494-.056.707a1.458 1.458 0 0 0-.397.202c-.527.408-.631.863-.606 1.366-.496.16-.644.792-.422 1.118-.593.596.008.728-.045 1.311l.018.005c.056-.613-.433-.71.088-1.24.23.262.686.436.271.935l.005.032c.126-.153.19-.278.211-.384.402.091-.045.789.103 1.142l.013-.003c-.134-.319.446-1.156-.109-1.242-.022-.303-.42-.457-.512-.724-.11-.327.017-.709.388-.816.026.308.091.634.129.98l.043-.029c-.114-1.04-.357-2.12 1.061-2.544a2.77 2.77 0 0 0 .321-.11c-.29.353-.563.727-.536 1.274l.065-.027c-.022-.449.216-.773.494-1.086.363-.406.794-.792.803-1.404.001-.1-.003-.195-.011-.286.615.201.781.862.547 1.428-.195.47-.917.742-.995 1.275a.543.543 0 0 0-.344.168c-.242.279-.085.83 0 1.315.047.265.072.51 0 .68l-.01.023.01.002.012.003c.308-.621-.389-1.85.33-2.009.023.187.12.406.323.675l.012-.056c-.665-.878.159-1.185.6-1.644.847.932-.027 1.102-.007 2.18l.032-.007c-.01-.625.383-.956.475-1.356.38.122.508.52.392.86-.096.284-.519.447-.542.768-.589.092.027.979-.116 1.317l.014.004c.157-.375-.317-1.115.11-1.211.021.112.089.245.223.407l.005-.034c-.44-.53.043-.714.288-.991.552.562.034.664.093 1.314.154-.4.237-.686.25-.858v-.061c-.01-.13-.083-.28-.279-.476.232-.34.084-.994-.419-1.177.008-.222-.09-.476-.403-.814.441-.583.25-1.723-.636-1.98-.1-.501-.37-.856-.757-1.104-1.973-1.267-7.025.236-8.605-.502 0-.096-.184.906.233.76z"/>
            <path d="M3.557 76.27c.189.08.39.136.573.203-.043-.221.176-.59-.05-.64a.537.537 0 0 1-.126.23l-.003-.02c.249-.299-.024-.404-.163-.56-.312.318-.019.375-.052.743l-.011-.003c.032-.35-.329-.429.027-.786-.108-.158-.07-.436.104-.588a.817.817 0 0 1-.299-.29.615.615 0 0 1-.074-.276c-.003-.061-.278.44-.27.954.01.501.302 1.015.344 1.033zm8.373-2.423c-.458.127-1.002.16-1.593.14-.476.236-.594.808-.389 1.302.186.447.87.704.945 1.21.387.06.467.333.446.67.6.214.776.99.501 1.394.745.748-.01.913.057 1.644l-.023.006c-.07-.769.543-.89-.11-1.554-.29.327-.86.546-.34 1.172l-.006.04c-.159-.192-.239-.348-.265-.481-.504.113.057.989-.13 1.432l-.015-.004c.168-.4-.56-1.45.136-1.558.028-.38.528-.573.642-.909.137-.403-.016-.873-.464-1.017-.06.449-.23.963-.093 1.241l-.021.005c-.292-.59.369-1.756-.314-1.907-.021.177-.113.386-.306.64l-.011-.053c.631-.833-.15-1.125-.57-1.56-.804.885.025 1.045.007 2.07l-.03-.008c.011-.667-.464-.98-.47-1.432-.639.163-.818.818-.587 1.375.185.447.87.704.945 1.21.938.145.072 1.543.335 2.076l-.02.005c-.292-.59.369-1.756-.314-1.908-.021.177-.113.386-.306.641l-.011-.053c.63-.834-.151-1.125-.57-1.561-.804.885.025 1.046.007 2.07l-.031-.007c.017-.975-1.004-1.195-.087-2.192-.429-.567-.227-1.689.668-1.896l-.001.039c.046-.16.154-.34.355-.558-.323-.427-.289-1.17.131-1.599-.452-.027-.925-.08-1.404-.141.187.26.209.627.056.85.594.596-.008.728.046 1.311l-.018.005c-.057-.613.432-.71-.088-1.24-.231.262-.686.436-.272.935l-.004.032c-.127-.153-.19-.278-.211-.384-.403.09.045.789-.104 1.142l-.012-.003c.134-.319-.447-1.156.109-1.242.021-.303.42-.457.511-.724.086-.252.03-.536-.17-.703-.493-.064-.99-.136-1.472-.195-.626.206-.934.901-.7 1.466.195.47.917.741.994 1.275.989.152.076 1.624.354 2.186l-.022.005c-.307-.621.389-1.85-.33-2.01-.023.188-.119.407-.323.676l-.012-.056c.665-.878-.158-1.185-.6-1.645-.846.933.027 1.102.008 2.182l-.033-.009a1.376 1.376 0 0 0-.146-.636.95.95 0 0 0-.24.24c-.221.337.108.474.32.58.426.214.702.358.384 1.098l-.036-.002c.49-1.14-.93-.826-.852-1.497a.536.536 0 0 1 .09-.23 1.1 1.1 0 0 1 .285-.284c-.268-.498-.641-.832.045-1.577-.372-.532-.31-1.439.318-1.82a10.604 10.604 0 0 0-1.549-.069c-.166.128-.238.254-.215.383.072.39 1.014.261.619 1.19l-.03-.002c.407-.95-.776-.688-.71-1.248a.557.557 0 0 1 .174-.313c-.271.02-.522.062-.745.13-.8.857-.035 1.105.544 1.376.58.272.916.577.64 1.6l-.056-.003c.341-1.262-.646-1.374-1.253-1.715-.15.094-.197.284-.14.45.055.16.294.252.307.434.312.049.025.494.055.707.15.054.287.116.398.202.526.408.63.863.606 1.366.496.16.644.792.421 1.118.594.596-.008.728.046 1.311l-.018.005c-.057-.613.432-.71-.088-1.24-.23.262-.686.436-.272.935l-.004.032c-.127-.153-.19-.278-.211-.384-.402.091.045.789-.104 1.142l-.013-.003c.135-.319-.446-1.156.11-1.242.022-.303.42-.457.511-.724.111-.327-.016-.709-.387-.816-.027.308-.091.634-.129.98l-.044-.029c.115-1.04.358-2.12-1.06-2.544a2.77 2.77 0 0 1-.322-.11c.291.353.564.727.537 1.274l-.066-.027c.023-.449-.215-.773-.494-1.086-.362-.406-.793-.792-.802-1.404-.002-.1.003-.195.011-.286-.615.201-.782.862-.547 1.428.195.47.917.742.995 1.275.16.025.27.084.343.168.242.279.086.83 0 1.315-.046.265-.072.51 0 .68l.01.023-.01.002-.011.003c-.308-.621.388-1.85-.331-2.009-.023.187-.12.406-.322.675l-.012-.056c.665-.878-.16-1.185-.6-1.644-.847.932.026 1.102.007 2.18l-.032-.007c.01-.625-.383-.956-.476-1.356-.378.122-.508.52-.392.86.097.284.52.447.543.768.589.092-.027.979.115 1.317l-.013.004c-.158-.375.317-1.115-.11-1.211-.021.112-.09.245-.224.407l-.004-.034c.44-.53-.043-.714-.289-.991-.551.562-.033.664-.093 1.314-.153-.4-.236-.686-.25-.858v-.061c.01-.13.083-.28.28-.476-.232-.34-.085-.994.419-1.177-.008-.222.09-.476.403-.814-.441-.583-.25-1.723.635-1.98.1-.501.37-.856.757-1.104 1.973-1.267 7.026.236 8.606-.502 0-.096.183.906-.233.76zM108.508 76.2c-.188.08-.389.137-.572.203.043-.22-.177-.59.049-.64.012.063.05.138.127.23l.002-.02c-.249-.299.024-.403.163-.56.312.318.019.376.053.744l.01-.003c-.031-.35.33-.43-.026-.787.107-.158.07-.435-.104-.587a.817.817 0 0 0 .298-.291.615.615 0 0 0 .075-.276c.002-.06.278.44.269.954-.009.501-.301 1.015-.344 1.033zm-8.372-2.423c.457.127 1.001.16 1.592.14.476.237.594.808.389 1.303-.185.447-.87.704-.944 1.21-.387.06-.468.332-.447.67-.6.213-.776.99-.5 1.393-.745.748.01.914-.058 1.645l.023.006c.07-.77-.543-.89.11-1.555.29.328.86.546.34 1.172l.006.04c.16-.191.24-.348.266-.48.504.113-.057.988.129 1.431l.016-.004c-.168-.4.56-1.45-.137-1.558-.027-.38-.527-.573-.642-.908-.137-.403.016-.874.464-1.017.06.448.231.963.094 1.24l.02.006c.293-.59-.369-1.756.314-1.908.022.178.113.386.306.641l.012-.053c-.632-.834.15-1.125.57-1.562.803.886-.026 1.047-.008 2.071l.031-.007c-.012-.667.463-.981.47-1.433.638.163.818.818.586 1.375-.185.447-.87.704-.944 1.21-.939.145-.072 1.543-.336 2.076l.021.005c.292-.59-.37-1.756.314-1.907.02.177.113.385.306.64l.01-.053c-.63-.833.152-1.125.57-1.561.804.886-.024 1.046-.006 2.07l.03-.007c-.016-.974 1.005-1.195.087-2.191.43-.567.228-1.69-.667-1.897v.04c-.046-.16-.153-.34-.354-.559.323-.427.288-1.17-.132-1.598.452-.028.926-.081 1.405-.142-.188.26-.21.627-.057.85-.593.597.008.729-.045 1.312l.018.004c.056-.613-.433-.709.087-1.239.232.261.687.436.272.934l.005.032c.126-.152.19-.277.211-.383.402.09-.045.788.103 1.141l.013-.003c-.134-.319.446-1.155-.109-1.242-.022-.303-.42-.456-.512-.724-.085-.251-.029-.536.17-.702.493-.065.99-.136 1.473-.196.626.206.934.902.7 1.466-.195.471-.917.742-.995 1.275-.988.152-.076 1.625-.354 2.186l.022.005c.308-.62-.388-1.85.33-2.009.023.187.12.407.323.675l.012-.056c-.665-.878.159-1.185.6-1.644.847.933-.026 1.102-.007 2.18l.032-.007c-.004-.252.06-.456.147-.636a.95.95 0 0 1 .24.24c.22.336-.108.473-.321.58-.426.214-.701.358-.384 1.097l.036-.001c-.489-1.14.93-.827.852-1.497a.536.536 0 0 0-.09-.231 1.1 1.1 0 0 0-.284-.284c.267-.498.641-.831-.045-1.576.372-.532.31-1.44-.318-1.82a10.604 10.604 0 0 1 1.548-.07c.167.129.239.255.215.383-.071.391-1.014.262-.618 1.19l.03-.001c-.408-.95.775-.69.71-1.248a.557.557 0 0 0-.175-.314c.272.02.522.062.746.13.8.858.035 1.106-.545 1.377-.58.271-.915.576-.64 1.6l.056-.003c-.34-1.262.647-1.374 1.253-1.715.15.093.197.283.14.449-.054.16-.293.253-.306.435-.313.048-.026.493-.056.706a1.458 1.458 0 0 0-.397.202c-.527.409-.631.863-.607 1.366-.495.16-.643.793-.421 1.118-.593.597.008.729-.045 1.312l.018.004c.056-.613-.433-.709.087-1.239.231.261.687.436.272.934l.004.032c.127-.152.191-.277.212-.383.402.09-.045.788.103 1.141l.013-.003c-.134-.319.446-1.155-.11-1.242-.021-.303-.42-.456-.51-.724-.112-.326.016-.708.386-.816.027.308.092.635.13.98l.043-.028c-.114-1.042-.357-2.121 1.061-2.544a2.77 2.77 0 0 0 .321-.111c-.29.353-.564.728-.536 1.275l.065-.028c-.022-.448.216-.773.494-1.085.363-.407.794-.793.803-1.405.001-.1-.003-.194-.011-.285.615.2.781.862.547 1.428-.195.47-.917.741-.995 1.274a.543.543 0 0 0-.344.169c-.242.278-.085.83 0 1.315.047.265.072.51 0 .68l-.01.022.01.003.012.003c.308-.622-.389-1.85.33-2.01.023.187.12.407.323.676l.012-.057c-.665-.878.159-1.184.6-1.644.846.933-.027 1.102-.008 2.181l.033-.008c-.01-.625.383-.955.475-1.355.379.121.508.519.392.86-.096.283-.519.446-.542.768-.59.091.026.978-.116 1.317l.014.003c.157-.374-.317-1.115.109-1.21.022.112.09.244.224.406l.005-.034c-.44-.529.043-.714.288-.99.552.561.034.663.093 1.313.154-.4.237-.685.25-.857v-.062c-.01-.13-.083-.28-.279-.476.232-.34.084-.993-.419-1.176.008-.223-.09-.477-.403-.815.44-.583.25-1.722-.636-1.98-.1-.5-.37-.856-.757-1.104-1.973-1.266-7.17.04-8.72-.347 0-.097-.069.751.348.606zM45.381 73.366c.043-.221-.176-.59.05-.64.011.063.05.138.126.23l.003-.02c-.25-.299.024-.404.163-.56.312.318.018.376.052.743l.011-.002c-.032-.35.329-.43-.027-.787.108-.158.07-.436-.104-.587a.817.817 0 0 0 .299-.292.615.615 0 0 0 .074-.275c.003-.061.278.44.27.954-.01.501-.733 1.17-.917 1.236zm.087-2.845c.8.857.035 1.105-.544 1.377-.58.271-.916.576-.64 1.599l.056-.002c-.341-1.263.646-1.374 1.253-1.716.15.094.197.284.14.45-.055.16-.294.253-.307.434-.313.049-.025.494-.055.707a1.458 1.458 0 0 0-.398.202c-.526.408-.63.863-.606 1.366-.496.16-.644.792-.422 1.118-.593.596.008.729-.045 1.311l.018.005c.056-.613-.432-.71.088-1.239.23.261.686.435.271.934l.005.032c.127-.153.19-.277.211-.383.402.09-.045.788.103 1.141l.014-.003c-.135-.319.446-1.155-.11-1.242-.022-.303-.42-.457-.511-.724-.111-.326.016-.709.387-.816.027.308.091.635.129.98l.044-.029c-.115-1.04-.358-2.12 1.06-2.544a2.77 2.77 0 0 0 .322-.11c-.291.353-.564.727-.537 1.274l.065-.027c-.022-.449.216-.773.495-1.085.362-.407.793-.793.802-1.405.002-.1-.003-.194-.011-.285.615.2.782.862.547 1.427-.195.471-.917.742-.995 1.275a.543.543 0 0 0-.343.169c-.242.278-.086.83 0 1.314.046.265.072.51 0 .68l-.01.023.01.003.011.002c.308-.621-.388-1.85.331-2.009.023.187.119.407.322.675l.012-.056c-.665-.878.16-1.185.6-1.644.847.933-.026 1.102-.007 2.18l.032-.007c-.01-.625.383-.956.476-1.356.378.122.508.52.392.86-.097.284-.52.447-.543.768-.589.092.027.98-.115 1.317l.013.004c.158-.375-.317-1.115.11-1.211.021.113.09.245.224.407l.004-.034c-.44-.53.043-.714.289-.99.551.561.033.663.093 1.313l.019-.004c-.037-.396.211-.596.23-.854v-.061c-.01-.13-.083-.28-.278-.476.231-.34.084-.994-.42-1.177.008-.222-.09-.476-.403-.814.441-.583.25-1.722-.635-1.98-.1-.501-.353-.943-.757-1.104-.981-.393-.71-.028-.486.04z"/>
            <path d="M41.898 76.142c-.078.05-.162.091-.248.128-.189.08-.39.136-.573.203.043-.221-.176-.59.05-.64.012.063.05.138.126.23l.003-.02c-.249-.299.024-.404.163-.56.312.318.019.375.052.743l.011-.003c-.032-.35.329-.429-.027-.786.108-.158.07-.436-.104-.588a.817.817 0 0 0 .299-.29.615.615 0 0 0 .074-.276c.003-.061.345.345.414.798.067.442-.138.93-.24 1.061zM23.13 74.85c-.174.152-.211.43-.104.588-.356.358.005.437-.026.786l.01.003c.034-.368-.26-.425.052-.743.14.156.413.261.164.56l.003.02a.535.535 0 0 0 .126-.23c.226.05.006.42.05.64-.184-.067-.385-.123-.573-.203a1.719 1.719 0 0 1-.249-.128c-.206-.267-.372-.55-.378-.911-.01-.681.224-1.115.627-1.381.027-.018.054-.035.082-.05a1.042 1.042 0 0 0-.074.125l-.008.016a.726.726 0 0 0-.075.342c.005.106.031.197.075.276a.82.82 0 0 0 .298.29zm8.38-1.86c-1.366.934-6.649-.712-8.678.594-.387.25-.657.606-.757 1.108-.886.258-1.077 1.398-.636 1.98-.312.34-.411.593-.403.815-.503.183-.651.837-.42 1.177-.195.196-.268.344-.278.475v.064c.02.257.267.457.231.851l.019.005c.06-.65-.459-.752.092-1.313.246.276.729.461.289.99l.005.034c.135-.163.202-.295.224-.407.427.096-.048.836.11 1.21l.013-.002c-.143-.339.473-1.226-.116-1.317-.023-.322-.445-.485-.543-.768-.116-.342.014-.74.392-.86.093.4.487.73.476 1.355l.032.008c.02-1.08-.853-1.249-.007-2.181.441.46 1.265.766.6 1.644l.012.056c.204-.269.3-.488.322-.675.72.16.023 1.388.331 2.01l.012-.004.01-.002-.01-.022c-.073-.17-.047-.417 0-.682.085-.485.241-1.035 0-1.313a.541.541 0 0 0-.344-.17c-.078-.532-.8-.803-.995-1.274-.234-.566-.068-1.227.547-1.428a2.893 2.893 0 0 0-.011.286c.01.612.44.998.803 1.405.278.312.516.636.494 1.085l.065.027c.028-.547-.245-.921-.536-1.275.075.034.176.068.321.111 1.418.423 1.175 1.503 1.06 2.544l.044.029c.038-.346.103-.672.13-.98.37.107.498.49.387.816-.092.267-.49.421-.512.724-.555.086.025.923-.109 1.242l.013.003c.148-.353-.3-1.051.103-1.142.02.106.085.231.211.384l.005-.032c-.415-.499.04-.673.272-.934.52.53.03.626.087 1.239l.018-.005c-.053-.583.548-.715-.045-1.311.222-.326.074-.959-.421-1.118.024-.503-.08-.958-.606-1.366a1.463 1.463 0 0 0-.398-.202c-.03-.213.257-.658-.056-.707-.012-.182-.252-.274-.307-.434-.056-.166-.01-.356.14-.45.607.341 1.595.453 1.254 1.715l.056.003c.309-1.146-.152-1.369-.864-1.7-.357-.165-.9-.377-.64-.9.065-.132.177-.261.32-.376a3.47 3.47 0 0 1 .745-.13.778.778 0 0 0-.1.121.447.447 0 0 0-.075.192c-.065.56 1.118.298.71 1.248l.03.002c.264-.617.035-.737-.32-.915-.177-.089-.451-.203-.267-.484a.75.75 0 0 1 .164-.173c.485-.024 1.03.011 1.603.073-.585.413-.67 1.317-.293 1.815-.684.742-.346 1.076-.096 1.57a1.107 1.107 0 0 0-.294.29.537.537 0 0 0-.09.231c-.078.671 1.342.358.853 1.497l.036.002c.317-.74.042-.884-.384-1.097-.213-.107-.541-.244-.32-.581a.95.95 0 0 1 .245-.245c.083.182.145.387.141.641l.032.009c.02-1.08-.854-1.249-.007-2.182.441.46 1.265.767.6 1.645l.012.056c.203-.269.3-.488.322-.675.72.16.023 1.388.33 2.009l.023-.005c-.278-.562.634-2.034-.354-2.186-.078-.534-.8-.804-.995-1.275-.246-.594-.05-1.293.642-1.454v-.019c.502.061 1.018.135 1.53.202.2.167.256.451.17.703-.09.267-.49.421-.511.724-.555.086.025.923-.109 1.242l.013.003c.148-.353-.3-1.051.103-1.142.02.106.084.231.211.384l.005-.032c-.415-.499.04-.673.272-.934.52.53.03.626.087 1.239l.018-.005c-.053-.583.548-.715-.045-1.311.152-.223.13-.59-.057-.85.48.06.953.114 1.404.141-.42.43-.454 1.172-.13 1.599-.148.16-.245.3-.305.426-.873.223-1.22 1.25-.757 1.99-.917.996.143 1.216.127 2.19l.03.008c.018-1.024-.81-1.185-.007-2.07.419.436 1.202.727.57 1.56l.011.054c.193-.255.285-.464.306-.64.683.15.022 1.317.314 1.907l.02-.005c-.263-.533.603-1.931-.335-2.076-.074-.506-.76-.763-.945-1.21-.23-.557-.052-1.212.588-1.375.006.451.48.765.469 1.432l.03.008c.019-1.025-.81-1.185-.007-2.07.42.435 1.202.727.57 1.56l.012.054c.193-.255.284-.464.306-.641.683.151.021 1.317.313 1.907l.021-.005c-.13-.264.032-.772.113-1.234.433.15.58.613.444 1.01-.114.336-.614.529-.641.909-.697.108.031 1.158-.137 1.558l.016.004c.186-.443-.375-1.319.13-1.432.025.133.106.29.265.48l.005-.04c-.52-.625.051-.844.341-1.171.653.665.04.785.11 1.554l.022-.006c-.066-.73.688-.896-.056-1.644.27-.397.104-1.156-.474-1.383.051-.4.003-.736-.415-.8-.073-.506-.7-.664-.885-1.11-.198-.48-.094-1.032.347-1.28.561.014 1.078-.022 1.516-.143.417.145.57.548.437.907-.114.31-.614.487-.641.838-.697.1.031 1.068-.137 1.438l.016.003c.186-.408-.375-1.216.13-1.321.025.123.105.267.264.444l.006-.037c-.52-.578.05-.78.34-1.082.653.614.04.725.11 1.435l.023-.005c-.066-.675.688-.828-.056-1.518.236-.32.14-.892-.272-1.173.735-.274.898-.274 1.634 0-.411.28-.508.854-.272 1.173-.227.21-.315.37-.329.511-.387.108-.504.562-.332.796-.456.422.006.516-.035.93l.014.002c.043-.434-.333-.502.067-.878.178.185.528.308.209.662l.003.022a.62.62 0 0 0 .163-.271c.308.064-.035.559.08.81l.009-.003c-.103-.226.343-.82-.084-.88-.017-.215-.323-.324-.393-.514a.422.422 0 0 1 .303-.567c.041.266.309.484.268.898l.023.005c.07-.71-.543-.82.11-1.434.29.302.861.503.34 1.08l.006.037c.16-.176.24-.32.266-.443.503.105-.057.913.129 1.321l.016-.003c-.169-.369.56-1.338-.137-1.437-.027-.352-.527-.53-.642-.84a.685.685 0 0 1 .437-.906c.458.127 1.002.16 1.593.14.476.236.594.808.389 1.302-.186.447-.87.704-.945 1.21-.387.06-.467.333-.446.67-.6.214-.776.99-.501 1.394-.745.748.01.913-.057 1.644l.023.006c.07-.769-.543-.89.11-1.554.29.327.86.546.34 1.172l.006.04c.16-.192.239-.348.265-.481.504.113-.057.989.13 1.432l.016-.004c-.169-.4.559-1.45-.137-1.558-.028-.38-.528-.573-.642-.909-.137-.403.016-.873.464-1.017.06.449.231.963.093 1.241l.021.005c.292-.59-.369-1.756.314-1.907.021.177.113.386.306.64l.011-.053c-.631-.833.151-1.125.57-1.56.804.885-.025 1.045-.007 2.07l.03-.008c-.01-.667.464-.98.47-1.432.639.163.818.818.587 1.375-.185.447-.87.704-.944 1.21-.939.145-.072 1.543-.336 2.076l.02.005c.292-.59-.369-1.756.314-1.908.021.177.113.386.306.641l.011-.053c-.63-.834.151-1.125.57-1.561.804.885-.025 1.046-.007 2.07l.031-.007c-.017-.975 1.004-1.195.087-2.192.429-.567.227-1.689-.668-1.896l.001.039c-.046-.16-.154-.34-.355-.558.324-.427.289-1.17-.131-1.599.452-.027.925-.08 1.404-.141-.187.26-.209.627-.056.85-.594.596.008.728-.045 1.311l.017.005c.057-.613-.432-.71.088-1.24.231.262.686.436.272.935l.004.032c.127-.153.19-.278.212-.384.402.09-.046.789.103 1.142l.013-.003c-.135-.319.446-1.156-.11-1.242-.021-.303-.42-.457-.511-.724-.086-.252-.03-.536.17-.703.493-.064.99-.136 1.473-.195.625.206.933.901.7 1.466-.196.47-.918.741-.995 1.275-.989.152-.076 1.624-.354 2.186l.022.005c.308-.621-.389-1.85.33-2.01.023.188.119.407.323.676l.012-.056c-.665-.878.158-1.185.6-1.645.846.933-.027 1.102-.008 2.182l.033-.009c-.005-.252.06-.456.146-.636a.95.95 0 0 1 .24.24c.221.337-.108.474-.32.58-.426.214-.701.358-.384 1.098l.036-.002c-.49-1.14.93-.826.852-1.497a.536.536 0 0 0-.09-.23 1.1 1.1 0 0 0-.285-.284c.268-.498.642-.832-.045-1.577.372-.532.31-1.439-.318-1.82a10.604 10.604 0 0 1 1.549-.069c.166.128.239.254.215.383-.071.39-1.014.261-.619 1.19l.03-.002c-.407-.95.776-.688.71-1.248a.557.557 0 0 0-.174-.313c.271.02.522.062.745.13.8.857.035 1.105-.544 1.376-.58.272-.915.577-.64 1.6l.056-.003c-.341-1.262.646-1.374 1.253-1.715.15.094.197.284.14.45-.055.16-.294.252-.307.434-.312.049-.025.494-.055.707a1.458 1.458 0 0 0-.398.202c-.526.408-.63.863-.606 1.366-.496.16-.644.792-.421 1.118-.594.596.008.728-.046 1.311l.018.005c.057-.613-.432-.71.088-1.24.231.262.686.436.272.935l.004.032c.127-.153.19-.278.211-.384.402.091-.045.789.104 1.142l.013-.003c-.135-.319.446-1.156-.11-1.242-.022-.303-.42-.457-.511-.724-.111-.327.016-.709.387-.816.027.308.092.634.13.98l.043-.029c-.115-1.04-.358-2.12 1.06-2.544a2.77 2.77 0 0 0 .322-.11c-.291.353-.564.727-.537 1.274l.066-.027c-.023-.449.215-.773.494-1.086.362-.406.793-.792.802-1.404.002-.1-.003-.195-.01-.286.614.201.78.862.546 1.428-.195.47-.917.742-.995 1.275a.543.543 0 0 0-.343.168c-.242.279-.086.83 0 1.315.046.265.072.51 0 .68l-.01.023.01.002.011.003c.308-.621-.388-1.85.331-2.009.023.187.12.406.322.675l.012-.056c-.665-.878.16-1.185.6-1.644.847.932-.026 1.102-.007 2.18l.032-.007c-.01-.625.384-.956.476-1.356.378.122.508.52.392.86-.097.284-.52.447-.543.768-.589.092.027.979-.115 1.317l.013.004c.158-.375-.317-1.115.11-1.211.022.112.09.245.224.407l.004-.034c-.44-.53.043-.714.289-.991.551.562.033.664.093 1.314l.019-.005c-.037-.395.211-.595.23-.853v-.061c-.01-.13-.082-.28-.278-.476.232-.34.084-.994-.42-1.177.009-.222-.09-.476-.403-.814.441-.583.25-1.723-.635-1.98-.1-.501-.37-.856-.757-1.104-1.973-1.267-7.026.236-8.606-.502 0-.096-.41-.096-1.534-.096z"/>
            <path d="M63.212 76.142c-.078.05-.162.091-.248.128-.189.08-.39.136-.573.203.043-.221-.176-.59.05-.64.011.063.05.138.126.23l.003-.02c-.249-.299.024-.404.163-.56.312.318.019.375.052.743l.011-.003c-.032-.35.329-.429-.027-.786.108-.158.07-.436-.104-.588a.817.817 0 0 0 .299-.29.615.615 0 0 0 .074-.276c.003-.059.285.321.354.754.071.455-.074.969-.18 1.105zM44.444 74.85c-.174.152-.212.43-.104.588-.356.358.005.437-.027.786l.011.003c.034-.368-.26-.425.052-.743.14.156.413.261.164.56l.002.02a.535.535 0 0 0 .127-.23c.226.05.006.42.05.64-.184-.067-.385-.123-.574-.203a1.719 1.719 0 0 1-.248-.128c-.206-.267-.373-.55-.378-.911-.01-.681.224-1.115.626-1.381.027-.018.055-.035.083-.05a1.042 1.042 0 0 0-.074.125l-.009.016a.726.726 0 0 0-.074.342c.005.106.031.197.074.276a.82.82 0 0 0 .3.29zm8.38-1.86c-1.366.934-6.649-.712-8.679.594-.386.25-.656.606-.756 1.108-.886.258-1.077 1.398-.636 1.98-.312.34-.411.593-.403.815-.503.183-.652.837-.42 1.177-.195.196-.268.344-.278.475v.064c.02.257.267.457.231.851l.019.005c.06-.65-.459-.752.092-1.313.246.276.729.461.288.99l.006.034c.134-.163.202-.295.224-.407.427.096-.048.836.11 1.21l.013-.002c-.143-.339.473-1.226-.116-1.317-.023-.322-.445-.485-.543-.768-.116-.342.014-.74.392-.86.093.4.487.73.476 1.355l.032.008c.02-1.08-.854-1.249-.007-2.181.441.46 1.265.766.6 1.644l.012.056c.204-.269.3-.488.322-.675.72.16.023 1.388.33 2.01l.012-.004.01-.002-.01-.022c-.072-.17-.046-.417 0-.682.086-.485.242-1.035 0-1.313a.541.541 0 0 0-.343-.17c-.078-.532-.8-.803-.995-1.274-.234-.566-.068-1.227.547-1.428a2.893 2.893 0 0 0-.011.286c.01.612.44.998.802 1.405.279.312.517.636.495 1.085l.065.027c.028-.547-.245-.921-.536-1.275.075.034.176.068.32.111 1.419.423 1.176 1.503 1.062 2.544l.043.029c.038-.346.102-.672.13-.98.37.107.498.49.386.816-.09.267-.49.421-.51.724-.556.086.024.923-.11 1.242l.013.003c.148-.353-.3-1.051.103-1.142.02.106.084.231.211.384l.005-.032c-.415-.499.04-.673.272-.934.52.53.03.626.087 1.239l.018-.005c-.053-.583.548-.715-.045-1.311.222-.326.074-.959-.421-1.118.024-.503-.08-.958-.606-1.366a1.463 1.463 0 0 0-.398-.202c-.03-.213.257-.658-.056-.707-.013-.182-.252-.274-.307-.434-.056-.166-.01-.356.14-.45.607.341 1.595.453 1.254 1.715l.056.003c.309-1.146-.152-1.369-.864-1.7-.357-.165-.9-.377-.64-.9.065-.132.177-.261.32-.376a3.47 3.47 0 0 1 .745-.13.778.778 0 0 0-.1.121.447.447 0 0 0-.075.192c-.065.56 1.118.298.71 1.248l.03.002c.264-.617.035-.737-.32-.915-.177-.089-.451-.203-.267-.484a.75.75 0 0 1 .164-.173c.485-.024 1.029.011 1.602.073-.584.413-.669 1.317-.293 1.815-.683.742-.345 1.076-.095 1.57a1.107 1.107 0 0 0-.294.29.537.537 0 0 0-.09.231c-.078.671 1.342.358.853 1.497l.036.002c.317-.74.042-.884-.384-1.097-.213-.107-.541-.244-.321-.581a.95.95 0 0 1 .246-.245c.083.182.145.387.141.641l.032.009c.02-1.08-.854-1.249-.007-2.182.44.46 1.265.767.6 1.645l.012.056c.203-.269.3-.488.322-.675.72.16.023 1.388.33 2.009l.022-.005c-.277-.562.635-2.034-.353-2.186-.078-.534-.8-.804-.995-1.275-.246-.594-.05-1.293.642-1.454v-.019c.502.061 1.018.135 1.53.202.2.167.256.451.17.703-.09.267-.49.421-.511.724-.555.086.025.923-.11 1.242l.013.003c.149-.353-.298-1.051.104-1.142.02.106.084.231.211.384l.005-.032c-.415-.499.04-.673.272-.934.52.53.03.626.087 1.239l.018-.005c-.054-.583.548-.715-.045-1.311.152-.223.13-.59-.057-.85.48.06.953.114 1.404.141-.42.43-.454 1.172-.13 1.599-.148.16-.245.3-.305.426-.873.223-1.22 1.25-.757 1.99-.918.996.143 1.216.127 2.19l.03.008c.018-1.024-.81-1.185-.007-2.07.419.436 1.201.727.57 1.56l.011.054c.193-.255.285-.464.306-.64.683.15.022 1.317.314 1.907l.02-.005c-.263-.533.603-1.931-.335-2.076-.074-.506-.76-.763-.945-1.21-.23-.557-.052-1.212.587-1.375.007.451.481.765.47 1.432l.03.008c.019-1.025-.81-1.185-.007-2.07.42.435 1.202.727.57 1.56l.012.054c.193-.255.284-.464.305-.641.683.151.022 1.317.314 1.907l.021-.005c-.131-.264.032-.772.113-1.234.433.15.58.613.444 1.01-.114.336-.614.529-.641.909-.697.108.031 1.158-.137 1.558l.016.004c.186-.443-.375-1.319.13-1.432.025.133.105.29.265.48l.005-.04c-.52-.625.051-.844.341-1.171.652.665.04.785.11 1.554l.022-.006c-.066-.73.688-.896-.056-1.644.27-.397.104-1.156-.474-1.383.051-.4.003-.736-.415-.8-.073-.506-.7-.664-.885-1.11-.199-.48-.094-1.032.347-1.28.561.014 1.078-.022 1.516-.143.417.145.57.548.437.907-.114.31-.614.487-.641.838-.697.1.031 1.068-.137 1.438l.016.003c.186-.408-.375-1.216.129-1.321.026.123.106.267.265.444l.006-.037c-.52-.578.05-.78.34-1.082.653.614.04.725.11 1.435l.023-.005c-.067-.675.688-.828-.056-1.518.236-.32.139-.892-.272-1.173.735-.274.898-.274 1.634 0-.411.28-.508.854-.272 1.173-.227.21-.315.37-.329.511-.388.108-.504.562-.332.796-.456.422.006.516-.035.93l.014.002c.043-.434-.333-.502.067-.878.178.185.527.308.209.662l.003.022a.62.62 0 0 0 .163-.271c.308.064-.035.559.079.81l.01-.003c-.103-.226.343-.82-.084-.88-.017-.215-.323-.324-.393-.514a.422.422 0 0 1 .302-.567c.042.266.31.484.268.898l.024.005c.07-.71-.543-.82.11-1.434.29.302.86.503.34 1.08l.006.037c.16-.176.24-.32.265-.443.504.105-.056.913.13 1.321l.016-.003c-.169-.369.56-1.338-.137-1.437-.027-.352-.527-.53-.642-.84a.685.685 0 0 1 .437-.906c.458.127 1.002.16 1.593.14.475.236.594.808.389 1.302-.186.447-.87.704-.945 1.21-.387.06-.467.333-.446.67-.6.214-.776.99-.501 1.394-.745.748.01.913-.057 1.644l.023.006c.07-.769-.543-.89.11-1.554.29.327.86.546.34 1.172l.006.04c.159-.192.239-.348.265-.481.504.113-.057.989.13 1.432l.015-.004c-.168-.4.56-1.45-.136-1.558-.028-.38-.528-.573-.642-.909-.137-.403.016-.873.464-1.017.06.449.23.963.093 1.241l.021.005c.292-.59-.369-1.756.314-1.907.021.177.113.386.306.64l.011-.053c-.631-.833.15-1.125.57-1.56.804.885-.025 1.045-.007 2.07l.03-.008c-.011-.667.464-.98.47-1.432.639.163.818.818.587 1.375-.185.447-.87.704-.945 1.21-.938.145-.072 1.543-.335 2.076l.02.005c.292-.59-.369-1.756.314-1.908.021.177.113.386.306.641l.011-.053c-.63-.834.151-1.125.57-1.561.804.885-.025 1.046-.007 2.07l.03-.007c-.016-.975 1.005-1.195.088-2.192.429-.567.227-1.689-.668-1.896l.001.039c-.046-.16-.154-.34-.355-.558.323-.427.289-1.17-.131-1.599.452-.027.925-.08 1.404-.141-.187.26-.209.627-.056.85-.594.596.008.728-.046 1.311l.018.005c.057-.613-.432-.71.088-1.24.231.262.686.436.272.935l.004.032c.127-.153.19-.278.211-.384.403.09-.045.789.104 1.142l.012-.003c-.134-.319.447-1.156-.109-1.242-.021-.303-.42-.457-.511-.724-.086-.252-.03-.536.17-.703.493-.064.99-.136 1.472-.195.626.206.934.901.7 1.466-.195.47-.917.741-.994 1.275-.989.152-.076 1.624-.354 2.186l.022.005c.307-.621-.389-1.85.33-2.01.023.188.119.407.323.676l.012-.056c-.665-.878.158-1.185.6-1.645.846.933-.027 1.102-.008 2.182l.033-.009c-.005-.252.06-.456.146-.636a.95.95 0 0 1 .24.24c.221.337-.108.474-.32.58-.426.214-.702.358-.384 1.098l.036-.002c-.49-1.14.93-.826.852-1.497a.536.536 0 0 0-.09-.23 1.1 1.1 0 0 0-.285-.284c.268-.498.641-.832-.045-1.577.372-.532.31-1.439-.318-1.82a10.604 10.604 0 0 1 1.549-.069c.166.128.238.254.215.383-.072.39-1.014.261-.619 1.19l.03-.002c-.407-.95.776-.688.71-1.248a.557.557 0 0 0-.174-.313c.271.02.522.062.745.13.8.857.035 1.105-.544 1.376-.58.272-.916.577-.64 1.6l.056-.003c-.341-1.262.646-1.374 1.253-1.715.15.094.197.284.14.45-.055.16-.294.252-.307.434-.312.049-.025.494-.055.707a1.458 1.458 0 0 0-.398.202c-.526.408-.63.863-.606 1.366-.496.16-.644.792-.421 1.118-.594.596.008.728-.046 1.311l.018.005c.057-.613-.432-.71.088-1.24.23.262.686.436.272.935l.004.032c.127-.153.19-.278.211-.384.402.091-.045.789.104 1.142l.013-.003c-.135-.319.446-1.156-.11-1.242-.022-.303-.42-.457-.511-.724-.111-.327.016-.709.387-.816.027.308.091.634.129.98l.044-.029c-.115-1.04-.358-2.12 1.06-2.544a2.77 2.77 0 0 0 .322-.11c-.291.353-.564.727-.537 1.274l.066-.027c-.023-.449.215-.773.494-1.086.362-.406.793-.792.802-1.404.002-.1-.003-.195-.011-.286.615.201.782.862.547 1.428-.195.47-.917.742-.995 1.275a.543.543 0 0 0-.343.168c-.242.279-.086.83 0 1.315.046.265.072.51 0 .68l-.01.023.01.002.011.003c.308-.621-.388-1.85.331-2.009.023.187.12.406.322.675l.012-.056c-.665-.878.16-1.185.6-1.644.847.932-.026 1.102-.007 2.18l.032-.007c-.01-.625.383-.956.476-1.356.378.122.508.52.392.86-.097.284-.52.447-.543.768-.589.092.027.979-.115 1.317l.013.004c.158-.375-.317-1.115.11-1.211.021.112.09.245.224.407l.004-.034c-.44-.53.043-.714.289-.991.551.562.033.664.093 1.314l.019-.005c-.037-.395.211-.595.23-.853v-.061c-.01-.13-.082-.28-.278-.476.231-.34.084-.994-.42-1.177.008-.222-.09-.476-.403-.814.441-.583.25-1.723-.635-1.98-.1-.501-.37-.856-.757-1.104-1.973-1.267-7.026.236-8.606-.502 0-.096-.41-.096-1.534-.096z"/>
            <g>
                <path d="M85.379 76.142c-.079.05-.163.091-.249.128-.188.08-.389.136-.572.203.043-.221-.177-.59.049-.64.012.063.05.138.127.23l.002-.02c-.249-.299.024-.404.163-.56.312.318.019.375.053.743l.01-.003c-.031-.35.33-.429-.026-.786.107-.158.07-.436-.104-.588a.817.817 0 0 0 .298-.29.615.615 0 0 0 .075-.276c.005-.12.38 1.592.174 1.86zM66.61 74.85c-.175.152-.212.43-.104.588-.356.358.004.437-.027.786l.01.003c.034-.368-.26-.425.053-.743.139.156.412.261.163.56l.003.02a.535.535 0 0 0 .126-.23c.226.05.007.42.05.64-.184-.067-.384-.123-.573-.203a1.719 1.719 0 0 1-.248-.128c-.207-.267-.373-.55-.378-.911-.01-.681.223-1.115.626-1.381.027-.018.055-.035.083-.05a1.042 1.042 0 0 0-.075.125l-.008.016a.726.726 0 0 0-.074.342c.004.106.03.197.074.276a.82.82 0 0 0 .299.29zm8.379-1.86c-1.366.934-6.648-.712-8.678.594-.387.25-.656.606-.757 1.108-.885.258-1.076 1.398-.636 1.98-.312.34-.41.593-.403.815-.503.183-.651.837-.42 1.177-.195.196-.268.344-.278.475v.064c.02.257.267.457.231.851l.02.005c.059-.65-.46-.752.091-1.313.246.276.73.461.289.99l.005.034c.135-.163.202-.295.224-.407.427.096-.048.836.11 1.21l.014-.002c-.143-.339.473-1.226-.116-1.317-.024-.322-.446-.485-.543-.768-.116-.342.013-.74.392-.86.092.4.487.73.475 1.355l.033.008c.019-1.08-.854-1.249-.008-2.181.441.46 1.266.766.6 1.644l.013.056c.203-.269.3-.488.322-.675.719.16.023 1.388.33 2.01l.012-.004.01-.002-.01-.022c-.072-.17-.047-.417 0-.682.086-.485.241-1.035 0-1.313a.541.541 0 0 0-.344-.17c-.078-.532-.8-.803-.994-1.274-.235-.566-.068-1.227.547-1.428a2.893 2.893 0 0 0-.012.286c.01.612.44.998.803 1.405.278.312.516.636.494 1.085l.065.027c.028-.547-.245-.921-.536-1.275.076.034.176.068.321.111 1.418.423 1.175 1.503 1.061 2.544l.044.029c.037-.346.102-.672.129-.98.37.107.498.49.387.816-.091.267-.49.421-.511.724-.556.086.025.923-.11 1.242l.013.003c.149-.353-.299-1.051.103-1.142.021.106.085.231.212.384l.004-.032c-.414-.499.04-.673.272-.934.52.53.031.626.088 1.239l.017-.005c-.053-.583.549-.715-.045-1.311.223-.326.074-.959-.42-1.118.023-.503-.081-.958-.607-1.366a1.463 1.463 0 0 0-.398-.202c-.03-.213.258-.658-.055-.707-.013-.182-.252-.274-.308-.434-.056-.166-.01-.356.141-.45.606.341 1.594.453 1.254 1.715l.055.003c.31-1.146-.152-1.369-.864-1.7-.356-.165-.899-.377-.64-.9.065-.132.177-.261.32-.376a3.47 3.47 0 0 1 .746-.13.778.778 0 0 0-.1.121.447.447 0 0 0-.076.192c-.065.56 1.118.298.71 1.248l.03.002c.265-.617.036-.737-.32-.915-.177-.089-.45-.203-.267-.484a.75.75 0 0 1 .165-.173c.484-.024 1.028.011 1.602.073-.584.413-.67 1.317-.293 1.815-.683.742-.345 1.076-.095 1.57a1.107 1.107 0 0 0-.294.29.537.537 0 0 0-.09.231c-.078.671 1.341.358.852 1.497l.036.002c.317-.74.042-.884-.383-1.097-.214-.107-.542-.244-.322-.581a.959.959 0 0 1 .247-.245c.082.182.145.387.14.641l.033.009c.019-1.08-.854-1.249-.008-2.182.441.46 1.265.767.6 1.645l.012.056c.204-.269.3-.488.323-.675.719.16.022 1.388.33 2.009l.022-.005c-.278-.562.635-2.034-.354-2.186-.078-.534-.8-.804-.994-1.275-.247-.594-.051-1.293.642-1.454v-.019c.501.061 1.018.135 1.53.202.2.167.255.451.17.703-.091.267-.49.421-.512.724-.555.086.026.923-.109 1.242l.013.003c.148-.353-.299-1.051.103-1.142.02.106.085.231.212.384l.004-.032c-.415-.499.04-.673.272-.934.52.53.031.626.087 1.239l.018-.005c-.053-.583.549-.715-.045-1.311.153-.223.131-.59-.056-.85.479.06.952.114 1.404.141-.42.43-.455 1.172-.131 1.599-.148.16-.245.3-.304.426-.874.223-1.22 1.25-.757 1.99-.918.996.143 1.216.126 2.19l.03.008c.019-1.024-.81-1.185-.007-2.07.42.436 1.202.727.57 1.56l.012.054c.193-.255.284-.464.306-.64.683.15.021 1.317.313 1.907l.021-.005c-.264-.533.603-1.931-.336-2.076-.074-.506-.76-.763-.944-1.21-.231-.557-.052-1.212.587-1.375.006.451.48.765.47 1.432l.03.008c.018-1.025-.81-1.185-.007-2.07.419.435 1.201.727.57 1.56l.011.054c.193-.255.285-.464.306-.641.683.151.022 1.317.314 1.907l.02-.005c-.13-.264.032-.772.114-1.234.433.15.58.613.444 1.01-.114.336-.615.529-.642.909-.696.108.032 1.158-.137 1.558l.016.004c.187-.443-.374-1.319.13-1.432.026.133.106.29.265.48l.006-.04c-.52-.625.05-.844.34-1.171.653.665.04.785.11 1.554l.023-.006c-.067-.73.688-.896-.057-1.644.27-.397.104-1.156-.473-1.383.05-.4.002-.736-.415-.8-.074-.506-.7-.664-.885-1.11-.2-.48-.094-1.032.346-1.28.562.014 1.079-.022 1.516-.143.417.145.57.548.438.907-.115.31-.615.487-.642.838-.696.1.032 1.068-.137 1.438l.016.003c.186-.408-.375-1.216.13-1.321.026.123.105.267.265.444l.005-.037c-.52-.578.051-.78.341-1.082.653.614.04.725.11 1.435l.023-.005c-.067-.675.687-.828-.057-1.518.236-.32.14-.892-.271-1.173.735-.274.897-.274 1.633 0-.41.28-.507.854-.271 1.173-.228.21-.315.37-.33.511-.387.108-.504.562-.332.796-.456.422.007.516-.035.93l.014.002c.044-.434-.332-.502.068-.878.177.185.527.308.208.662l.004.022a.62.62 0 0 0 .162-.271c.309.064-.034.559.08.81l.009-.003c-.103-.226.343-.82-.084-.88-.016-.215-.322-.324-.393-.514a.422.422 0 0 1 .303-.567c.042.266.31.484.268.898l.023.005c.07-.71-.543-.82.11-1.434.29.302.861.503.34 1.08l.007.037c.159-.176.239-.32.265-.443.503.105-.057.913.13 1.321l.015-.003c-.168-.369.56-1.338-.137-1.437-.027-.352-.527-.53-.642-.84a.685.685 0 0 1 .438-.906c.457.127 1.001.16 1.592.14.476.236.594.808.389 1.302-.185.447-.87.704-.944 1.21-.388.06-.468.333-.447.67-.6.214-.776.99-.501 1.394-.744.748.01.913-.057 1.644l.023.006c.07-.769-.543-.89.11-1.554.29.327.86.546.34 1.172l.006.04c.16-.192.24-.348.266-.481.504.113-.057.989.129 1.432l.016-.004c-.168-.4.56-1.45-.137-1.558-.027-.38-.527-.573-.642-.909-.137-.403.016-.873.464-1.017.06.449.231.963.093 1.241l.021.005c.293-.59-.369-1.756.314-1.907.022.177.113.386.306.64l.012-.053c-.632-.833.15-1.125.57-1.56.803.885-.026 1.045-.008 2.07l.031-.008c-.012-.667.463-.98.47-1.432.638.163.818.818.586 1.375-.185.447-.87.704-.944 1.21-.939.145-.072 1.543-.336 2.076l.021.005c.292-.59-.37-1.756.314-1.908.02.177.113.386.306.641l.01-.053c-.63-.834.152-1.125.57-1.561.804.885-.024 1.046-.006 2.07l.03-.007c-.016-.975 1.005-1.195.087-2.192.43-.567.228-1.689-.667-1.896v.039c-.046-.16-.153-.34-.354-.558.323-.427.288-1.17-.132-1.599.452-.027.926-.08 1.405-.141-.188.26-.21.627-.057.85-.593.596.008.728-.045 1.311l.018.005c.056-.613-.433-.71.087-1.24.232.262.687.436.272.935l.005.032c.126-.153.19-.278.211-.384.402.09-.045.789.103 1.142l.013-.003c-.134-.319.446-1.156-.109-1.242-.022-.303-.42-.457-.512-.724-.085-.252-.03-.536.17-.703.493-.064.99-.136 1.473-.195.626.206.934.901.7 1.466-.195.47-.917.741-.995 1.275-.988.152-.076 1.624-.354 2.186l.022.005c.308-.621-.388-1.85.33-2.01.023.188.12.407.323.676l.012-.056c-.665-.878.159-1.185.6-1.645.847.933-.026 1.102-.007 2.182l.032-.009c-.004-.252.06-.456.147-.636a.95.95 0 0 1 .24.24c.22.337-.108.474-.321.58-.426.214-.701.358-.384 1.098l.036-.002c-.489-1.14.93-.826.852-1.497a.536.536 0 0 0-.09-.23 1.093 1.093 0 0 0-.285-.284c.268-.498.642-.832-.044-1.577.372-.532.31-1.439-.318-1.82a10.604 10.604 0 0 1 1.548-.069c.167.128.239.254.215.383-.071.39-1.014.261-.618 1.19l.03-.002c-.408-.95.775-.688.71-1.248a.557.557 0 0 0-.175-.313c.272.02.522.062.746.13.8.857.035 1.105-.545 1.376-.58.272-.915.577-.64 1.6l.056-.003c-.341-1.262.647-1.374 1.253-1.715.15.094.197.284.14.45-.054.16-.293.252-.306.434-.313.049-.026.494-.056.707a1.458 1.458 0 0 0-.397.202c-.527.408-.631.863-.607 1.366-.495.16-.643.792-.421 1.118-.593.596.008.728-.045 1.311l.018.005c.056-.613-.433-.71.087-1.24.231.262.687.436.272.935l.004.032c.127-.153.191-.278.212-.384.402.091-.045.789.103 1.142l.013-.003c-.134-.319.446-1.156-.11-1.242-.021-.303-.42-.457-.51-.724-.112-.327.016-.709.386-.816.027.308.092.634.13.98l.043-.029c-.114-1.04-.357-2.12 1.061-2.544a2.77 2.77 0 0 0 .321-.11c-.29.353-.564.727-.536 1.274l.065-.027c-.022-.449.216-.773.494-1.086.363-.406.794-.792.803-1.404.001-.1-.004-.195-.012-.286.616.201.782.862.548 1.428-.195.47-.917.742-.995 1.275a.543.543 0 0 0-.344.168c-.242.279-.085.83 0 1.315.047.265.072.51 0 .68l-.01.023.01.002.012.003c.308-.621-.389-1.85.33-2.009.023.187.12.406.323.675l.012-.056c-.665-.878.159-1.185.6-1.644.846.932-.027 1.102-.008 2.18l.033-.007c-.01-.625.383-.956.475-1.356.379.122.508.52.392.86-.096.284-.519.447-.542.768-.59.092.026.979-.116 1.317l.014.004c.157-.375-.317-1.115.109-1.211.022.112.09.245.224.407l.005-.034c-.44-.53.043-.714.288-.991.552.562.034.664.093 1.314l.02-.005c-.037-.395.21-.595.23-.853v-.061c-.01-.13-.083-.28-.279-.476.232-.34.084-.994-.419-1.177.008-.222-.09-.476-.403-.814.44-.583.25-1.723-.636-1.98-.1-.501-.37-.856-.757-1.104-1.973-1.267-7.026.236-8.605-.502 0-.096-.41-.096-1.535-.096z"/>
                <path d="M87.754 74.85c-.174.151-.212.429-.104.587-.356.358.005.437-.027.786l.01.003c.035-.368-.259-.425.053-.743.14.156.413.261.163.56l.003.02a.535.535 0 0 0 .127-.23c.226.05.006.42.05.64-.184-.067-.385-.123-.574-.203a1.719 1.719 0 0 1-.248-.128c-.207-.267-.373-.55-.378-.911-.01-.681.224-1.115.626-1.381.027-.018.055-.035.083-.05a1.042 1.042 0 0 0-.074.125l-.009.016a.726.726 0 0 0-.074.342c.004.106.031.197.074.276a.82.82 0 0 0 .3.29zm8.38-1.86c-1.367.933-6.649-.713-8.679.593-.386.25-.656.606-.757 1.108-.885.258-1.076 1.398-.635 1.98-.312.34-.411.593-.403.815-.503.183-.652.837-.42 1.177-.195.196-.268.344-.278.475v.064c.02.257.267.457.23.851l.02.005c.06-.65-.459-.752.092-1.313.245.276.729.461.288.99l.006.034c.134-.163.202-.295.224-.407.427.096-.048.836.11 1.21l.013-.002c-.143-.339.473-1.226-.116-1.317-.023-.322-.445-.485-.543-.768-.116-.342.013-.74.392-.86.093.4.487.73.476 1.355l.032.008c.02-1.08-.854-1.249-.007-2.181.44.46 1.265.766.6 1.644l.012.056c.204-.269.3-.488.322-.675.72.16.023 1.388.33 2.01l.012-.004.01-.002-.01-.022c-.072-.17-.046-.417 0-.682.086-.485.242-1.035 0-1.313a.541.541 0 0 0-.343-.17c-.078-.532-.8-.803-.995-1.274-.234-.566-.068-1.227.547-1.428a2.893 2.893 0 0 0-.011.286c.01.612.44.998.802 1.405.279.312.517.636.495 1.085l.065.027c.028-.547-.246-.921-.537-1.275.076.034.177.068.322.111 1.418.423 1.175 1.503 1.06 2.544l.044.029c.038-.346.102-.672.13-.98.37.107.498.49.386.816-.09.267-.49.421-.51.724-.556.086.024.923-.11 1.242l.012.003c.149-.353-.298-1.051.104-1.142.02.106.084.231.211.384l.005-.032c-.415-.499.04-.673.272-.934.52.53.03.626.087 1.239l.018-.005c-.053-.583.548-.715-.045-1.311.222-.326.074-.959-.421-1.118.024-.503-.08-.958-.606-1.366a1.463 1.463 0 0 0-.398-.202c-.03-.213.257-.658-.056-.707-.013-.182-.252-.274-.307-.434-.056-.166-.01-.356.14-.45.607.341 1.595.453 1.254 1.715l.056.003c.309-1.146-.153-1.369-.864-1.7-.357-.165-.9-.377-.64-.9.065-.132.176-.261.319-.376a3.47 3.47 0 0 1 .746-.13.778.778 0 0 0-.1.121.447.447 0 0 0-.075.192c-.065.56 1.117.298.71 1.248l.03.002c.264-.617.035-.737-.32-.915-.177-.089-.451-.203-.267-.484a.75.75 0 0 1 .164-.173c.484-.024 1.029.011 1.602.073-.584.413-.669 1.317-.293 1.815-.683.742-.345 1.076-.095 1.57a1.107 1.107 0 0 0-.294.29.537.537 0 0 0-.09.231c-.078.671 1.342.358.853 1.497l.036.002c.317-.74.042-.884-.384-1.097-.213-.107-.542-.244-.321-.581a.95.95 0 0 1 .246-.245c.083.182.145.387.141.641l.032.009c.02-1.08-.854-1.249-.007-2.182.44.46 1.265.767.6 1.645l.012.056c.203-.269.3-.488.322-.675.719.16.023 1.388.33 2.009l.022-.005c-.277-.562.635-2.034-.353-2.186-.078-.534-.8-.804-.995-1.275-.246-.594-.05-1.293.642-1.454v-.019c.502.061 1.018.135 1.53.202.2.167.256.451.17.703-.09.267-.49.421-.511.724-.555.086.025.923-.11 1.242l.013.003c.149-.353-.298-1.051.104-1.142.02.106.084.231.211.384l.004-.032c-.414-.499.041-.673.273-.934.52.53.03.626.087 1.239l.018-.005c-.054-.583.548-.715-.046-1.311.153-.223.132-.59-.056-.85.48.06.953.114 1.404.141-.42.43-.454 1.172-.131 1.599-.147.16-.245.3-.304.426-.874.223-1.22 1.25-.757 1.99-.918.996.143 1.216.126 2.19l.031.008c.018-1.024-.81-1.185-.007-2.07.419.436 1.201.727.57 1.56l.011.054c.193-.255.285-.464.306-.64.683.15.022 1.317.314 1.907l.02-.005c-.263-.533.603-1.931-.335-2.076-.074-.506-.76-.763-.945-1.21-.23-.557-.052-1.212.587-1.375.007.451.481.765.47 1.432l.03.008c.019-1.025-.81-1.185-.007-2.07.42.435 1.202.727.57 1.56l.011.054c.193-.255.285-.464.306-.641.683.151.022 1.317.314 1.907l.021-.005c-.131-.264.031-.772.113-1.234.433.15.58.613.444 1.01-.114.336-.614.529-.641.909-.697.108.031 1.158-.137 1.558l.016.004c.186-.443-.375-1.319.13-1.432.025.133.105.29.265.48l.005-.04c-.52-.625.05-.844.341-1.171.652.665.04.785.11 1.554l.022-.006c-.066-.73.688-.896-.056-1.644.27-.397.104-1.156-.474-1.383.051-.4.003-.736-.415-.8-.074-.506-.7-.664-.885-1.11-.199-.48-.094-1.032.347-1.28.561.014 1.078-.022 1.516-.143.416.145.57.548.437.907-.114.31-.614.487-.642.838-.696.1.032 1.068-.137 1.438l.017.003c.186-.408-.375-1.216.129-1.321.026.123.106.267.265.444l.006-.037c-.52-.578.05-.78.34-1.082.653.614.04.725.11 1.435l.023-.005c-.067-.675.688-.828-.057-1.518.236-.32.14-.892-.271-1.173.735-.274.898-.274 1.633 0-.41.28-.507.854-.271 1.173-.227.21-.315.37-.329.511-.388.108-.504.562-.332.796-.456.422.006.516-.035.93l.014.002c.043-.434-.333-.502.067-.878.177.185.527.308.209.662l.003.022a.62.62 0 0 0 .163-.271c.308.064-.035.559.079.81l.01-.003c-.103-.226.343-.82-.084-.88-.017-.215-.323-.324-.393-.514a.422.422 0 0 1 .302-.567c.042.266.31.484.268.898l.024.005c.07-.71-.543-.82.11-1.434.29.302.86.503.34 1.08l.006.037c.16-.176.24-.32.265-.443.504.105-.057.913.13 1.321l.016-.003c-.169-.369.56-1.338-.137-1.437-.028-.352-.528-.53-.642-.84a.685.685 0 0 1 .437-.906c.458.127 1.002.16 1.593.14.475.236.594.808.388 1.302-.185.447-.87.704-.944 1.21-.387.06-.467.333-.446.67-.6.214-.777.99-.502 1.394-.744.748.01.913-.056 1.644l.023.006c.07-.769-.543-.89.11-1.554.29.327.86.546.34 1.172l.006.04c.159-.192.239-.348.265-.481.504.113-.057.989.13 1.432l.015-.004c-.168-.4.56-1.45-.137-1.558-.027-.38-.527-.573-.641-.909-.137-.403.016-.873.464-1.017.06.449.23.963.093 1.241l.02.005c.293-.59-.368-1.756.315-1.907.02.177.112.386.306.64l.01-.053c-.63-.833.152-1.125.57-1.56.804.885-.024 1.045-.007 2.07l.031-.008c-.011-.667.463-.98.47-1.432.639.163.818.818.587 1.375-.185.447-.87.704-.945 1.21-.938.145-.072 1.543-.336 2.076l.021.005c.292-.59-.369-1.756.314-1.908.021.177.113.386.306.641l.011-.053c-.63-.834.151-1.125.57-1.561.804.885-.025 1.046-.007 2.07l.03-.007c-.016-.975 1.005-1.195.087-2.192.43-.567.228-1.689-.667-1.896l.001.039c-.046-.16-.154-.34-.355-.558.323-.427.288-1.17-.131-1.599.451-.027.261-.521.461-.688.493-.064-3.006-.294-4.13-.294z"/>
            </g>
            <path d="M19.88 73.334c.756-.058 1.33-.087 1.72-.087.392 0 .966.029 1.722.087l-.49.421c-.524-.067-.935-.1-1.231-.1-.297 0-.718.033-1.263.1M41.193 73.334a24.45 24.45 0 0 1 1.822-.099c.407 0 .948.033 1.621.099l-.49.421c-.454-.127-.831-.19-1.131-.19-.3 0-.755.063-1.363.19M62.507 73.334c.95-.066 1.666-.099 2.148-.099.482 0 1.198.033 2.148.099l-.49.421c-.722-.143-1.274-.215-1.658-.215-.384 0-.947.072-1.69.215M84.162 73.162a35.628 35.628 0 0 1 2.148-.094c.484 0 1.2.032 2.148.094l-.49.421c-.73-.081-1.282-.122-1.658-.122-.377 0-.94.04-1.69.122"/>
        </g>
        <path d="M16.138 72.519v-1.046h.165c.05 0 .089.008.116.025a.226.226 0 0 1 .073.076l.465.82c.048.083.126.125.235.125h.589l-.597-.984a.576.576 0 0 0-.219-.2.937.937 0 0 0 .242-.133.826.826 0 0 0 .283-.411.902.902 0 0 0 .037-.26c0-.12-.02-.231-.062-.334a.664.664 0 0 0-.197-.265.97.97 0 0 0-.35-.176 1.857 1.857 0 0 0-.518-.063h-.912v2.826h.65zm.262-1.497h-.262v-.838h.262c.168 0 .292.035.372.105.08.07.12.166.12.29 0 .062-.009.12-.027.174a.359.359 0 0 1-.086.14.408.408 0 0 1-.153.095.664.664 0 0 1-.226.034zM36.899 72.55c.218 0 .416-.037.595-.11a1.353 1.353 0 0 0 .754-.765 1.53 1.53 0 0 0 .105-.57c0-.203-.035-.392-.105-.568a1.365 1.365 0 0 0-.295-.458 1.372 1.372 0 0 0-.459-.305 1.537 1.537 0 0 0-.595-.112c-.218 0-.417.037-.596.11a1.357 1.357 0 0 0-.757.762 1.53 1.53 0 0 0-.105.57c0 .205.035.395.105.571.07.176.168.329.296.459.128.13.281.231.46.305.18.074.379.11.597.11zm0-.543a.869.869 0 0 1-.336-.061.657.657 0 0 1-.248-.178.8.8 0 0 1-.155-.284 1.238 1.238 0 0 1-.053-.38c0-.139.017-.264.053-.376a.8.8 0 0 1 .155-.284.666.666 0 0 1 .248-.179.857.857 0 0 1 .336-.062c.124 0 .235.02.333.062.097.042.18.101.247.179a.8.8 0 0 1 .155.284c.036.112.054.237.054.377s-.018.267-.054.38a.8.8 0 0 1-.155.283.658.658 0 0 1-.247.178.856.856 0 0 1-.333.06zM55.239 72.55c.218 0 .416-.037.595-.11a1.353 1.353 0 0 0 .754-.765 1.53 1.53 0 0 0 .105-.57c0-.203-.035-.392-.105-.568a1.365 1.365 0 0 0-.295-.458 1.372 1.372 0 0 0-.459-.305 1.537 1.537 0 0 0-.595-.112c-.218 0-.417.037-.596.11-.18.074-.333.176-.461.305-.128.13-.226.282-.296.458a1.53 1.53 0 0 0-.105.57c0 .204.035.394.105.57.07.176.168.329.296.459.128.13.281.231.46.305.18.074.379.11.597.11zm0-.543a.869.869 0 0 1-.336-.061.657.657 0 0 1-.248-.178.8.8 0 0 1-.155-.284 1.238 1.238 0 0 1-.054-.38c0-.139.018-.264.054-.376a.8.8 0 0 1 .155-.284.666.666 0 0 1 .248-.179.857.857 0 0 1 .336-.062c.124 0 .235.02.333.062.097.042.18.101.247.179a.8.8 0 0 1 .155.284c.036.112.054.237.054.377s-.018.267-.054.38a.8.8 0 0 1-.155.283.658.658 0 0 1-.247.178.856.856 0 0 1-.333.06zM71.88 72.519v-2.306h.79v-.52h-2.228v.52h.789v2.306zM91.367 72.55c.159 0 .3-.025.426-.073a.859.859 0 0 0 .51-.497.99.99 0 0 0 .068-.367.76.76 0 0 0-.054-.302.67.67 0 0 0-.142-.212.767.767 0 0 0-.2-.143 2.047 2.047 0 0 0-.23-.098 4.992 4.992 0 0 0-.23-.076 1.508 1.508 0 0 1-.2-.075.464.464 0 0 1-.14-.097.196.196 0 0 1-.055-.141c0-.09.03-.16.09-.212.06-.053.15-.079.272-.079.07 0 .133.01.189.028.055.019.104.04.147.063l.115.063a.199.199 0 0 0 .095.028c.034 0 .06-.007.082-.023a.246.246 0 0 0 .06-.07l.162-.304a.945.945 0 0 0-.17-.125 1.268 1.268 0 0 0-.437-.155 1.524 1.524 0 0 0-.25-.02c-.155 0-.291.023-.41.07a.916.916 0 0 0-.302.189.801.801 0 0 0-.25.58.9.9 0 0 0 .053.332.681.681 0 0 0 .34.37c.075.038.152.069.23.094.078.025.154.048.229.069.074.02.14.044.199.071a.416.416 0 0 1 .141.103.237.237 0 0 1 .054.161c0 .114-.033.197-.098.25a.43.43 0 0 1-.275.078.634.634 0 0 1-.227-.037 1.076 1.076 0 0 1-.17-.081 8.41 8.41 0 0 1-.133-.082.218.218 0 0 0-.116-.037.157.157 0 0 0-.082.023.193.193 0 0 0-.06.055l-.193.306c.055.056.12.106.194.152a1.517 1.517 0 0 0 .768.22z" fill="#FFF" fill-rule="nonzero"/>
        <g transform="rotate(-1 107.888 -56.357)" fill="url(#b)" fill-rule="nonzero">
            <path d="m54.769.026.209 13.259.099.001c1.027.012 2.049.056 3.064.132l.577-6.584.895.085-.578 6.574c1.06.1 2.113.234 3.155.402L64.413.841l.885.157-2.22 13.05c.964.174 1.92.377 2.868.61l1.913-6.418.86.263-1.901 6.377c1.013.268 2.014.57 3.003.902l5.092-12.724.832.34-5.074 12.68c.986.352 1.958.737 2.916 1.152l3.649-6.89.791.426-3.617 6.83c1.03.471 2.044.977 3.037 1.518l6.99-12.034.774.458-6.979 12.014a48.18 48.18 0 0 1 2.596 1.588l4.416-5.922.717.542-4.386 5.88c.855.584 1.691 1.196 2.508 1.834l9.141-10.319.67.601-9.107 10.28a48.55 48.55 0 0 1 2.418 2.1l5.527-5.525.632.64-5.505 5.503c.756.728 1.49 1.482 2.2 2.26l10.617-8.836.573.694-10.589 8.814c.706.802 1.386 1.63 2.041 2.482l6.155-4.444.525.732-6.137 4.431c.508.687 1 1.389 1.474 2.105l12.255-6.54.423.795L95.21 35.75a49.46 49.46 0 0 1 1.947 3.346l7.073-3.708.418.798-7.076 3.71a48.942 48.942 0 0 1 2.006 4.504l.093.244-1.46.567a47.373 47.373 0 0 0-3.639-7.506c-8.422-14.067-23.48-22.84-40.035-22.84-16.027 0-30.668 8.218-39.244 21.565a47.407 47.407 0 0 0-3.252 5.96l-.104.23-1.425-.654c.388-.863.8-1.714 1.237-2.551l-8.646-3.807.366-.823 8.705 3.833c.482-.886.991-1.756 1.527-2.61L-.006 28.426l.439-.786 13.755 7.608.087-.132c.57-.866 1.164-1.71 1.782-2.532L8.626 27.62l.503-.746 7.477 4.995a49.019 49.019 0 0 1 1.894-2.28L6.554 20.238l.558-.706 11.992 9.386a48.77 48.77 0 0 1 2.194-2.244l-6.45-5.972.614-.657 6.493 6.011a48.556 48.556 0 0 1 2.214-1.925l-9.72-11.273.685-.585 9.738 11.295a48.356 48.356 0 0 1 2.561-1.883l-4.945-6.746.729-.528 4.963 6.772a48.157 48.157 0 0 1 2.774-1.696l-7.431-12.23.772-.463 7.447 12.257c.904-.49 1.824-.95 2.758-1.38l-3.609-7.362.81-.391 3.62 7.384c.951-.417 1.916-.803 2.894-1.157L33.3 2.844l.846-.307 4.918 13.309a47.725 47.725 0 0 1 3.314-1L40.33 8.18l.862-.259 2.06 6.707a47.73 47.73 0 0 1 2.824-.594L43.478.447l.885-.163 2.6 13.598a47.87 47.87 0 0 1 3.101-.391l-.876-6.779.893-.11.88 6.814a48.195 48.195 0 0 1 3.116-.13L53.87.033l.9-.008z"/>
        </g>
        <g>
            <path stroke="#FFF" stroke-width="1.188" fill="#FFF" d="m34.592 54.558 11.012 7.91 22.784-20.951-22.784 28.45z"/>
            <path fill="#60B86A" d="m34.592 54.558 11.012 7.91 22.784-20.951-22.784 28.45z"/>
        </g>
    </g>
</svg>
