<svg width="24" height="20" viewBox="0 0 24 20" xmlns="http://www.w3.org/2000/svg">
    <path d="M23.456 2.308c-.377.17-.765.314-1.16.43A5.247 5.247 0 0 0 23.34.869a.398.398 0 0 0-.128-.428.382.382 0 0 0-.438-.03 9.042 9.042 0 0 1-2.7 1.086A5.13 5.13 0 0 0 16.467 0c-2.84 0-5.152 2.352-5.152 5.244 0 .228.014.454.042.677-3.525-.315-6.802-2.078-9.053-4.888a.384.384 0 0 0-.634.05A5.313 5.313 0 0 0 .972 3.72c0 1.264.443 2.463 1.226 3.4a4.326 4.326 0 0 1-.69-.314.381.381 0 0 0-.38.003.395.395 0 0 0-.195.332v.07c0 1.887.997 3.585 2.522 4.51a4.369 4.369 0 0 1-.392-.058.383.383 0 0 0-.362.126.399.399 0 0 0-.08.381 5.186 5.186 0 0 0 3.775 3.515 8.997 8.997 0 0 1-4.872 1.416 9.16 9.16 0 0 1-1.091-.065.387.387 0 0 0-.41.258.398.398 0 0 0 .155.465A13.717 13.717 0 0 0 7.691 20c5.246 0 8.527-2.518 10.356-4.63 2.281-2.633 3.59-6.12 3.59-9.564 0-.143-.003-.289-.007-.434.9-.69 1.674-1.525 2.305-2.485a.4.4 0 0 0-.026-.472.382.382 0 0 0-.453-.107z" fill="#FFF" fill-rule="nonzero"/>
</svg>
